<svg xmlns="http://www.w3.org/2000/svg" width="960" height="540" viewBox="0 0 960 540">
  <rect width="100%" height="100%" fill="white"/>
  <text x="80" y="34" font-size="22" font-weight="700" fill="#111827">TPC-H Q2 1GPU vs 4GPU Runtime</text>
  <text x="80" y="54" font-size="14" fill="#4b5563">Warm median speedup, excluding iter 0/1: 1.01x</text>
  <line x1="80" y1="460.0" x2="930" y2="460.0" stroke="#e5e7eb" stroke-width="1"/><text x="68" y="464.0" text-anchor="end" font-size="12" fill="#374151">0.00</text><line x1="80" y1="380.0" x2="930" y2="380.0" stroke="#e5e7eb" stroke-width="1"/><text x="68" y="384.0" text-anchor="end" font-size="12" fill="#374151">0.61</text><line x1="80" y1="300.0" x2="930" y2="300.0" stroke="#e5e7eb" stroke-width="1"/><text x="68" y="304.0" text-anchor="end" font-size="12" fill="#374151">1.22</text><line x1="80" y1="220.0" x2="930" y2="220.0" stroke="#e5e7eb" stroke-width="1"/><text x="68" y="224.0" text-anchor="end" font-size="12" fill="#374151">1.83</text><line x1="80" y1="140.0" x2="930" y2="140.0" stroke="#e5e7eb" stroke-width="1"/><text x="68" y="144.0" text-anchor="end" font-size="12" fill="#374151">2.44</text><line x1="80" y1="60.0" x2="930" y2="60.0" stroke="#e5e7eb" stroke-width="1"/><text x="68" y="64.0" text-anchor="end" font-size="12" fill="#374151">3.05</text>
  <line x1="80" y1="60" x2="80" y2="460" stroke="#111827" stroke-width="1.5"/>
  <line x1="80" y1="460" x2="930" y2="460" stroke="#111827" stroke-width="1.5"/>
  <polyline points="80.0,141.3 174.4,238.8 268.9,231.2 363.3,236.3 457.8,236.4 552.2,238.9 646.7,236.1 741.1,232.0 835.6,233.4 930.0,233.6" fill="none" stroke="#2563eb" stroke-width="3"/>
  <polyline points="80.0,96.4 174.4,230.0 268.9,239.2 363.3,236.7 457.8,231.2 552.2,238.7 646.7,222.2 741.1,241.8 835.6,237.7 930.0,221.9" fill="none" stroke="#dc2626" stroke-width="3"/>
  <circle cx="80.0" cy="141.3" r="4" fill="#2563eb"/><circle cx="174.4" cy="238.8" r="4" fill="#2563eb"/><circle cx="268.9" cy="231.2" r="4" fill="#2563eb"/><circle cx="363.3" cy="236.3" r="4" fill="#2563eb"/><circle cx="457.8" cy="236.4" r="4" fill="#2563eb"/><circle cx="552.2" cy="238.9" r="4" fill="#2563eb"/><circle cx="646.7" cy="236.1" r="4" fill="#2563eb"/><circle cx="741.1" cy="232.0" r="4" fill="#2563eb"/><circle cx="835.6" cy="233.4" r="4" fill="#2563eb"/><circle cx="930.0" cy="233.6" r="4" fill="#2563eb"/><circle cx="80.0" cy="96.4" r="4" fill="#dc2626"/><circle cx="174.4" cy="230.0" r="4" fill="#dc2626"/><circle cx="268.9" cy="239.2" r="4" fill="#dc2626"/><circle cx="363.3" cy="236.7" r="4" fill="#dc2626"/><circle cx="457.8" cy="231.2" r="4" fill="#dc2626"/><circle cx="552.2" cy="238.7" r="4" fill="#dc2626"/><circle cx="646.7" cy="222.2" r="4" fill="#dc2626"/><circle cx="741.1" cy="241.8" r="4" fill="#dc2626"/><circle cx="835.6" cy="237.7" r="4" fill="#dc2626"/><circle cx="930.0" cy="221.9" r="4" fill="#dc2626"/>
  <text x="80.0" y="495" text-anchor="middle" font-size="12" fill="#374151">0</text><text x="174.4" y="495" text-anchor="middle" font-size="12" fill="#374151">1</text><text x="268.9" y="495" text-anchor="middle" font-size="12" fill="#374151">2</text><text x="363.3" y="495" text-anchor="middle" font-size="12" fill="#374151">3</text><text x="457.8" y="495" text-anchor="middle" font-size="12" fill="#374151">4</text><text x="552.2" y="495" text-anchor="middle" font-size="12" fill="#374151">5</text><text x="646.7" y="495" text-anchor="middle" font-size="12" fill="#374151">6</text><text x="741.1" y="495" text-anchor="middle" font-size="12" fill="#374151">7</text><text x="835.6" y="495" text-anchor="middle" font-size="12" fill="#374151">8</text><text x="930.0" y="495" text-anchor="middle" font-size="12" fill="#374151">9</text>
  <text x="480.0" y="525" text-anchor="middle" font-size="14" fill="#111827">Iteration</text>
  <text x="22" y="270.0" text-anchor="middle" font-size="14" fill="#111827" transform="rotate(-90 22 270.0)">Runtime (s)</text>
  <rect x="705" y="74" width="210" height="62" fill="white" stroke="#d1d5db"/>
  <line x1="725" y1="96" x2="765" y2="96" stroke="#2563eb" stroke-width="3"/>
  <text x="775" y="101" font-size="13" fill="#111827">1 GPU</text>
  <line x1="725" y1="120" x2="765" y2="120" stroke="#dc2626" stroke-width="3"/>
  <text x="775" y="125" font-size="13" fill="#111827">4 GPU</text>
</svg>
